<mxfile host="65bd71144e">
    <diagram id="iZLzQ0KM_W977_wtIT1Q" name="Page-1">
        <mxGraphModel dx="734" dy="1507" grid="1" gridSize="10" guides="1" tooltips="1" connect="1" arrows="1" fold="1" page="1" pageScale="1" pageWidth="850" pageHeight="1100" math="0" shadow="0" adaptiveColors="auto">
            <root>
                <mxCell id="0"/>
                <mxCell id="1" parent="0"/>
                <mxCell id="91" style="edgeStyle=none;html=1;exitX=1;exitY=0.5;exitDx=0;exitDy=0;entryX=0;entryY=0.5;entryDx=0;entryDy=0;" parent="1" edge="1">
                    <mxGeometry relative="1" as="geometry">
                        <mxPoint x="800" y="567.5" as="sourcePoint"/>
                    </mxGeometry>
                </mxCell>
                <mxCell id="124" style="edgeStyle=none;html=1;exitX=1;exitY=0.5;exitDx=0;exitDy=0;entryX=0;entryY=0.5;entryDx=0;entryDy=0;" parent="1" edge="1">
                    <mxGeometry relative="1" as="geometry">
                        <mxPoint x="640" y="630" as="sourcePoint"/>
                    </mxGeometry>
                </mxCell>
                <mxCell id="193" value="&lt;table border=&quot;1&quot; width=&quot;100%&quot; height=&quot;100%&quot; cellpadding=&quot;4&quot; style=&quot;width:100%;height:100%;border-collapse:collapse;&quot;&gt;&lt;tbody&gt;&lt;tr&gt;&lt;th align=&quot;center&quot;&gt;&lt;b&gt;ResourcesManager&lt;/b&gt;&lt;/th&gt;&lt;/tr&gt;&lt;tr&gt;&lt;td align=&quot;center&quot;&gt;SaveCode{get;}&lt;br&gt;private resources&lt;br&gt;&lt;/td&gt;&lt;/tr&gt;&lt;tr&gt;&lt;td align=&quot;center&quot;&gt;static CreateFromFolder(parentNode, folderName)&lt;br&gt;&lt;br&gt;RequestDownloadContent()&lt;br&gt;&lt;br&gt;&lt;/td&gt;&lt;/tr&gt;&lt;/tbody&gt;&lt;/table&gt;" style="text;html=1;whiteSpace=wrap;strokeColor=none;fillColor=none;overflow=fill;" parent="1" vertex="1">
                    <mxGeometry x="300" y="100" width="220" height="160" as="geometry"/>
                </mxCell>
                <mxCell id="194" value="&lt;table border=&quot;1&quot; width=&quot;100%&quot; height=&quot;100%&quot; cellpadding=&quot;4&quot; style=&quot;width:100%;height:100%;border-collapse:collapse;&quot;&gt;&lt;tbody&gt;&lt;tr&gt;&lt;th align=&quot;center&quot;&gt;&lt;b&gt;MultiplayerResouce&lt;br&gt;&lt;/b&gt;&lt;/th&gt;&lt;/tr&gt;&lt;tr&gt;&lt;td align=&quot;center&quot;&gt;isCustom&lt;/td&gt;&lt;/tr&gt;&lt;tr&gt;&lt;td align=&quot;center&quot;&gt;&lt;br&gt;&lt;/td&gt;&lt;/tr&gt;&lt;/tbody&gt;&lt;/table&gt;" style="text;html=1;whiteSpace=wrap;strokeColor=none;fillColor=none;overflow=fill;" parent="1" vertex="1">
                    <mxGeometry x="580" y="110" width="180" height="140" as="geometry"/>
                </mxCell>
                <mxCell id="254" value="&lt;table border=&quot;1&quot; width=&quot;100%&quot; height=&quot;100%&quot; cellpadding=&quot;4&quot; style=&quot;width:100%;height:100%;border-collapse:collapse;&quot;&gt;&lt;tbody&gt;&lt;tr&gt;&lt;th align=&quot;center&quot;&gt;&lt;b&gt;ResourcesSaver&lt;/b&gt;&lt;/th&gt;&lt;/tr&gt;&lt;tr&gt;&lt;td align=&quot;center&quot;&gt;&lt;br&gt;&lt;/td&gt;&lt;/tr&gt;&lt;tr&gt;&lt;td align=&quot;center&quot;&gt;&lt;br&gt;&lt;/td&gt;&lt;/tr&gt;&lt;/tbody&gt;&lt;/table&gt;" style="text;html=1;whiteSpace=wrap;strokeColor=none;fillColor=none;overflow=fill;" parent="1" vertex="1">
                    <mxGeometry x="320" y="300" width="180" height="140" as="geometry"/>
                </mxCell>
                <mxCell id="262" style="edgeStyle=none;html=1;exitX=1;exitY=0.5;exitDx=0;exitDy=0;entryX=0;entryY=0.5;entryDx=0;entryDy=0;" parent="1" source="255" target="193" edge="1">
                    <mxGeometry relative="1" as="geometry"/>
                </mxCell>
                <mxCell id="264" value="resourcesManager" style="edgeLabel;html=1;align=center;verticalAlign=middle;resizable=0;points=[];" parent="262" vertex="1" connectable="0">
                    <mxGeometry x="-0.1982" y="-1" relative="1" as="geometry">
                        <mxPoint x="8" y="-15" as="offset"/>
                    </mxGeometry>
                </mxCell>
                <mxCell id="255" value="&lt;table border=&quot;1&quot; width=&quot;100%&quot; height=&quot;100%&quot; cellpadding=&quot;4&quot; style=&quot;width:100%;height:100%;border-collapse:collapse;&quot;&gt;&lt;tbody&gt;&lt;tr&gt;&lt;th align=&quot;center&quot;&gt;&lt;b&gt;WorldContainer&lt;/b&gt;&lt;/th&gt;&lt;/tr&gt;&lt;tr&gt;&lt;td align=&quot;center&quot;&gt;resourcesManager{get; set;}&lt;/td&gt;&lt;/tr&gt;&lt;tr&gt;&lt;td align=&quot;center&quot;&gt;saveWorld()&lt;br&gt;loadWorld()&lt;br&gt;&lt;br&gt;GetWorldsList()&lt;br&gt;DownloadWorld()&lt;/td&gt;&lt;/tr&gt;&lt;/tbody&gt;&lt;/table&gt;" style="text;html=1;whiteSpace=wrap;strokeColor=none;fillColor=none;overflow=fill;" parent="1" vertex="1">
                    <mxGeometry x="10" y="110" width="180" height="140" as="geometry"/>
                </mxCell>
                <mxCell id="256" value="&lt;h1 style=&quot;margin-top: 0px;&quot;&gt;Ресурсы&lt;/h1&gt;&lt;div&gt;- должны быть мультиплеерными&lt;/div&gt;&lt;div&gt;- должны хранится на сервере и погружаться для клиентов&lt;/div&gt;" style="text;html=1;whiteSpace=wrap;overflow=hidden;rounded=0;" parent="1" vertex="1">
                    <mxGeometry x="40" y="-100" width="360" height="110" as="geometry"/>
                </mxCell>
                <mxCell id="257" value="&lt;h1 style=&quot;margin-top: 0px;&quot;&gt;При создании мира на сервере&lt;/h1&gt;&lt;div&gt;- создается ресурс менеджер, присваивается имя и хэш&lt;/div&gt;&lt;div&gt;-&amp;nbsp;&lt;span style=&quot;background-color: transparent;&quot;&gt;&lt;font style=&quot;color: light-dark(rgb(192, 192, 192), rgb(217, 217, 217));&quot;&gt;далее все как при обычной загрузке&lt;/font&gt;&lt;/span&gt;&lt;/div&gt;" style="text;html=1;whiteSpace=wrap;overflow=hidden;rounded=0;" parent="1" vertex="1">
                    <mxGeometry x="440" y="-270" width="390" height="90" as="geometry"/>
                </mxCell>
                <mxCell id="259" value="&lt;h1 style=&quot;margin-top: 0px;&quot;&gt;При загрузке мира на сервере&lt;/h1&gt;&lt;div&gt;- читаем список миров сохранений&lt;/div&gt;&lt;div&gt;- читаем из папки сцену ресурс менеджера&lt;/div&gt;&lt;div&gt;-&amp;nbsp;&lt;span style=&quot;background-color: transparent;&quot;&gt;&lt;font style=&quot;color: light-dark(rgb(192, 192, 192), rgb(232, 232, 232));&quot;&gt;далее все как при обычной загрузке&lt;/font&gt;&lt;/span&gt;&lt;/div&gt;" style="text;html=1;whiteSpace=wrap;overflow=hidden;rounded=0;" parent="1" vertex="1">
                    <mxGeometry x="440" y="-180" width="390" height="120" as="geometry"/>
                </mxCell>
                <mxCell id="260" value="&lt;h1 style=&quot;margin-top: 0px;&quot;&gt;При подключении к серверу&lt;/h1&gt;&lt;div&gt;- запрашиваем скачивание мира&lt;br&gt;&lt;/div&gt;&lt;div&gt;- загружается ресурс менеджер&lt;/div&gt;&lt;div&gt;- далее все как при обычной загрузке&lt;/div&gt;" style="text;html=1;whiteSpace=wrap;overflow=hidden;rounded=0;" parent="1" vertex="1">
                    <mxGeometry x="440" y="-60" width="390" height="120" as="geometry"/>
                </mxCell>
                <mxCell id="261" value="&lt;font style=&quot;color: light-dark(rgb(0, 0, 0), rgb(117, 117, 117));&quot;&gt;бывший LocationContainer&lt;/font&gt;" style="text;html=1;align=center;verticalAlign=middle;whiteSpace=wrap;rounded=0;" parent="1" vertex="1">
                    <mxGeometry x="10" y="80" width="180" height="30" as="geometry"/>
                </mxCell>
            </root>
        </mxGraphModel>
    </diagram>
</mxfile>